<mxfile host="app.diagrams.net" modified="2024-02-14T14:04:26.482Z" agent="Mozilla/5.0 (Windows NT 10.0; Win64; x64) AppleWebKit/537.36 (KHTML, like Gecko) Chrome/121.0.0.0 Safari/537.36" version="21.8.1" etag="0hEHsJarBjPEkRhbA3vP" type="github">
  <diagram name="PÃ¡gina-1" id="GdNgFy1NioCgjFcn6W3O">
    <mxGraphModel>
      <root>
        <mxCell id="0" />
        <mxCell id="1" parent="0" />
      </root>
    </mxGraphModel>
  </diagram>
</mxfile>
